<svg xmlns="http://www.w3.org/2000/svg" width="512" height="512" viewBox="0 0 512 512" version="1.1">
	<path d="M 260.218 11.106 C 246.433 12.708, 227.607 20.355, 213.496 30.081 C 204.346 36.389, 191.434 49.436, 183.852 60.036 C 172.816 75.464, 164.309 95.804, 160.445 116 C 158.029 128.623, 157.994 149.341, 160.367 161.391 C 161.330 166.281, 161.754 170.615, 161.309 171.020 C 160.864 171.426, 158.700 172.325, 156.500 173.017 C 146.417 176.188, 135.764 182.718, 124.140 192.850 C 117.340 198.777, 116.158 199.406, 108.640 201.107 C 104.163 202.120, 97.125 202.965, 93 202.984 C 83.657 203.028, 77.287 205.751, 71.321 212.249 C 66.059 217.981, 63.598 222.798, 60.891 232.664 C 57.895 243.584, 58.575 260.672, 62.495 273 C 64.439 279.113, 65.434 285.010, 66.039 294 C 67.603 317.260, 72.463 335.985, 81.743 354.500 C 97.651 386.242, 125.528 412.045, 157.301 424.440 C 167.174 428.292, 170 431.548, 170 439.075 C 170 443.378, 169.626 444.165, 166.250 446.968 C 164.188 448.681, 153.187 454.807, 141.805 460.582 C 121.120 471.076, 109 478.764, 109 481.389 C 109 485.208, 129.352 489.779, 150.254 490.654 L 166.007 491.314 167.051 495.407 C 167.625 497.658, 168.872 502.200, 169.822 505.500 L 171.549 511.500 176.162 511.800 C 180.430 512.078, 181.236 511.718, 186.909 506.996 C 190.283 504.188, 195.920 499.200, 199.436 495.911 C 205.185 490.533, 206.515 489.788, 212.656 488.503 C 216.411 487.717, 229.387 486.364, 241.491 485.496 C 264.476 483.847, 276.818 482.516, 277.748 481.585 C 278.631 480.703, 272.825 472.939, 269.162 470.103 C 260.455 463.361, 259.347 463.933, 280.500 464.246 L 299.500 464.527 315.500 471.351 C 324.300 475.104, 336.516 480.386, 342.647 483.088 C 348.778 485.789, 354.282 488, 354.878 488 C 357.694 488, 357.597 474.907, 354.738 469.176 C 353.535 466.765, 353.420 465.790, 354.301 465.490 C 355.432 465.105, 387.043 458.570, 393.500 457.386 C 400.541 456.095, 404 454.836, 404 453.565 C 404 451.530, 397.662 446.363, 391.106 443.053 C 381.308 438.108, 374.384 436.312, 350.502 432.522 C 326.533 428.719, 318 427.117, 318 426.424 C 318 426.198, 324.222 422.896, 331.827 419.087 C 352.157 408.902, 365.504 399.597, 378.500 386.546 C 399.372 365.586, 413.846 340.649, 419.626 315.690 L 421.435 307.881 428.220 304.315 C 439.997 298.127, 450.075 285.314, 452.939 272.888 C 454.638 265.521, 454.186 250.336, 451.998 241.206 C 446.479 218.187, 433.622 199.862, 417.378 191.866 C 411.987 189.212, 409.306 188.553, 402.427 188.191 C 392.468 187.669, 387.036 188.861, 377.328 193.701 L 370.156 197.276 359.828 191.157 C 354.148 187.792, 348.973 184.692, 348.329 184.269 C 347.487 183.716, 347.820 182.482, 349.515 179.873 C 351.733 176.462, 352.277 176.203, 358.670 175.519 C 367.990 174.521, 377.154 171.529, 379.923 168.582 C 382.973 165.336, 383.785 158.418, 381.610 154.213 C 380.618 152.294, 377.593 149.687, 373.749 147.437 C 370.312 145.426, 367.169 143.267, 366.765 142.640 C 365.101 140.058, 366.115 136.628, 369.478 133.456 C 374.977 128.270, 381.155 126.776, 400.085 126.053 C 419.049 125.329, 422 124.363, 422 118.878 C 422 108.810, 409.269 97.035, 398.355 97.010 C 392.333 96.996, 382.288 93.583, 376.255 89.502 C 368.718 84.403, 363.637 77.410, 355.910 61.500 C 352.171 53.800, 347.168 45.159, 344.794 42.298 C 334.962 30.450, 317.573 19.753, 299.775 14.604 C 292.183 12.407, 273.979 9.748, 269.144 10.130 C 268.240 10.201, 264.223 10.640, 260.218 11.106 M 253.350 23.985 C 230.030 30.098, 206.814 46.215, 192.829 66 C 177.337 87.917, 169.675 112.263, 169.696 139.500 C 169.708 154.518, 171.417 165.370, 176.465 182.483 C 180.446 195.976, 180.925 201.445, 178.250 202.847 C 174.542 204.789, 172.346 202.507, 169.046 193.280 C 164.706 181.148, 165.016 181.514, 160.369 183.021 C 152.069 185.711, 135.486 195.300, 132.121 199.354 C 131.005 200.698, 131.221 201.005, 133.662 201.543 C 140.876 203.132, 148.387 206.150, 153.389 209.470 C 164.675 216.962, 176.187 235.251, 179.486 250.932 C 187.943 291.134, 161.689 330, 126.076 330 C 110.815 330, 99.659 324.760, 86.353 311.340 L 77.206 302.116 77.733 306.308 C 78.640 313.516, 82.962 329.119, 86.651 338.500 C 97.161 365.226, 112.777 385.028, 135.138 399.985 C 164.937 419.917, 201.395 429.155, 244.500 427.696 C 271.961 426.767, 293.551 421.990, 320.683 410.843 C 342.891 401.718, 355.952 393.071, 372.534 376.516 C 392.443 356.640, 404.514 334.975, 409.546 310.090 C 411.845 298.719, 411.127 277.756, 408.070 267 C 404.853 255.681, 396.013 238.667, 388.433 229.206 C 378.333 216.599, 363.907 204.838, 347.500 195.834 L 339.500 191.444 333 194.763 C 319.778 201.516, 303.563 199.807, 293.300 190.580 C 290.589 188.142, 287.526 184.275, 286.494 181.987 C 284.811 178.255, 284.736 177.020, 285.761 169.988 C 286.499 164.920, 286.576 161.007, 285.976 158.918 C 285.145 156.017, 285.399 155.300, 288.468 151.903 C 292.720 147.198, 293.630 142.856, 291.600 136.968 C 290.146 132.752, 290.169 132.391, 291.994 130.563 C 293.827 128.728, 294.030 128.717, 295.826 130.343 C 296.869 131.287, 298.525 133.838, 299.505 136.011 C 301.687 140.849, 304.004 141.501, 319 141.497 C 332.446 141.493, 336.668 140.066, 353.786 129.740 C 372.624 118.377, 377.314 116.799, 394 116.215 C 408.079 115.722, 408.964 114.695, 396.354 113.482 C 384.709 112.363, 373.019 115.413, 354.839 124.315 C 339.262 131.943, 332.481 134.358, 323.500 135.479 C 319.184 136.017, 320.210 135.432, 331 131.204 C 337.875 128.510, 349.575 123.318, 357 119.666 C 368.376 114.071, 372.231 112.701, 381.500 110.958 C 398.415 107.778, 398.286 107.827, 392.500 106.810 C 382.346 105.025, 369.551 99.745, 362.029 94.236 C 361.770 94.046, 362.112 93.549, 362.790 93.130 C 363.678 92.581, 363.292 91.690, 361.402 89.934 C 359.962 88.595, 356.790 84.719, 354.355 81.321 C 345.770 69.344, 339.057 65.804, 332.129 69.601 C 326.063 72.925, 323.188 77.585, 322.012 86 C 320.655 95.710, 318.577 101.904, 315.033 106.796 C 308.415 115.931, 300.767 117.560, 306.995 108.508 C 311.581 101.842, 314.066 93.986, 315.222 82.500 C 316.487 69.926, 317.221 67.973, 322.520 63.088 C 327.063 58.900, 333.392 56.537, 338.180 57.240 C 339.731 57.467, 341 57.245, 341 56.746 C 341 54.154, 332.883 44.169, 327.557 40.209 C 319.133 33.946, 304.838 27.351, 293.399 24.449 C 281.066 21.321, 264.255 21.126, 253.350 23.985 M 254.429 58.381 C 245.055 62.746, 240 71.721, 240 84 C 240 92.850, 242.234 98.932, 247.729 105.044 C 255.721 113.933, 263.159 116.038, 271.798 111.856 C 285.589 105.180, 289.818 76.940, 278.993 63.808 C 275.302 59.330, 268.652 55.997, 263.434 56.010 C 261.270 56.015, 257.218 57.082, 254.429 58.381 M 260 72 C 256.461 75.539, 257.968 85.220, 262.271 86.586 C 264.865 87.409, 268.505 85.383, 269.890 82.343 C 272.599 76.397, 269.806 70, 264.500 70 C 263.125 70, 261.100 70.900, 260 72 M 333.500 78.208 C 330.727 79.798, 329.209 81.983, 328.433 85.500 C 327.352 90.396, 323.002 100.131, 320.327 103.638 L 317.836 106.903 321.928 105.296 C 325.731 103.802, 326.435 103.815, 331.919 105.476 C 335.551 106.575, 338.887 106.994, 340.596 106.565 C 343.814 105.758, 357.842 92.509, 356.695 91.361 C 356.271 90.937, 354.644 91.073, 353.081 91.663 C 350.330 92.702, 350.198 92.605, 349.025 88.691 C 347.294 82.913, 345.068 79.927, 341.328 78.364 C 337.410 76.727, 336.127 76.701, 333.500 78.208 M 333.925 82.282 C 333.059 82.952, 331.485 84.828, 330.428 86.452 C 328.527 89.371, 328.527 89.396, 330.457 88.655 C 334.310 87.176, 340.899 86.769, 343.922 87.823 C 345.615 88.413, 347 88.665, 347 88.382 C 347 86.714, 344.540 83.814, 342.020 82.510 C 338.526 80.704, 336.056 80.634, 333.925 82.282 M 298.148 151.134 C 297.037 152.914, 297.038 153.411, 298.158 154.130 C 301.067 156, 315.804 161.278, 321.976 162.661 C 330.667 164.609, 360.210 165.599, 365.500 164.119 C 371.855 162.342, 372.596 161.603, 371.166 158.465 C 370.077 156.074, 369.569 155.858, 366.427 156.448 C 364.492 156.811, 356.292 157.098, 348.204 157.086 C 332.213 157.062, 321.925 155.556, 309.965 151.488 C 301.045 148.454, 299.844 148.418, 298.148 151.134 M 396 198.639 C 390.914 199.425, 385.409 201.249, 382.201 203.208 L 378.902 205.224 389.225 215.862 C 400.148 227.117, 404.563 233.132, 410.248 244.500 C 417.581 259.163, 422 275.952, 422 289.151 L 422 295.041 425.973 293.014 C 438.885 286.427, 445.620 270.417, 443.090 252.329 C 440.482 233.685, 432.722 216.993, 422.163 207.313 C 416.125 201.778, 403.265 197.514, 396 198.639 M 108.500 212.570 C 105.750 213.335, 99.995 213.970, 95.710 213.981 C 84.417 214.009, 78.804 217.283, 74.249 226.500 C 68.732 237.661, 68.513 257.103, 73.734 272.229 C 79.269 288.263, 89.258 302.026, 101.292 310.198 C 109.622 315.855, 116.781 318.161, 125.950 318.141 C 138.155 318.115, 147.168 313.964, 156.035 304.286 C 167.693 291.561, 172.620 270.585, 168.387 251.697 C 164.853 235.928, 156.007 222.587, 145.174 216.691 C 135.395 211.369, 119.312 209.561, 108.500 212.570 M 297.250 432.327 L 290 434.284 290 438.071 C 290 442.834, 287.898 444.985, 283.179 445.052 C 281.155 445.081, 274.775 446.644, 269 448.526 L 258.500 451.948 279.756 451.865 L 301.011 451.783 309.044 455.962 C 315.491 459.316, 328.356 464.951, 345 471.711 C 346.002 472.118, 345.816 471.519, 344.443 469.910 C 343.311 468.585, 340.044 464.734, 337.183 461.353 L 331.980 455.205 339.240 454.532 C 348.880 453.638, 374.106 450.098, 376 449.374 C 379.787 447.925, 370.959 446.281, 339.194 442.522 C 327.476 441.135, 315.979 439.520, 313.645 438.932 C 309.643 437.924, 309.114 438.058, 304.291 441.304 C 299.458 444.557, 292.486 446.819, 291.214 445.548 C 290.228 444.561, 292.208 443.435, 300.133 440.477 L 307.766 437.627 306.747 434.564 C 306.186 432.879, 305.451 431.246, 305.114 430.935 C 304.776 430.624, 301.238 431.251, 297.250 432.327 M 183 440.804 C 183 445.486, 182.441 447.489, 180.110 451.165 C 177.417 455.412, 175.820 456.428, 156.619 466.111 C 145.289 471.825, 136.014 476.906, 136.009 477.403 C 135.996 478.656, 155.711 477.412, 165.443 475.546 C 172.665 474.161, 173.607 474.168, 175.833 475.626 C 178.248 477.208, 178.271 477.365, 177.608 487.615 C 176.862 499.158, 177.277 499.839, 182.615 495.838 C 187.656 492.061, 196.019 483.665, 199.704 478.685 C 203.074 474.129, 203.461 473.902, 206.884 474.480 C 208.874 474.817, 217.127 474.396, 225.223 473.546 C 233.319 472.696, 242.993 471.977, 246.722 471.948 L 253.500 471.897 238.500 466.560 C 216.054 458.573, 211.741 456.591, 209.755 453.349 C 208.796 451.782, 208.008 451.001, 208.005 451.613 C 207.992 454.365, 184.781 456.114, 182.223 453.556 C 180.928 452.261, 184.243 451.273, 188.343 451.733 C 190.629 451.989, 195.200 451.657, 198.500 450.995 C 201.800 450.333, 205.223 449.805, 206.107 449.823 C 207.531 449.851, 207.564 449.434, 206.401 446.177 C 205.679 444.155, 205.068 441.488, 205.044 440.250 C 205.004 438.210, 204.511 437.999, 199.750 437.988 C 196.863 437.982, 192.025 437.312, 189 436.500 C 185.975 435.688, 183.387 435.018, 183.250 435.012 C 183.113 435.005, 183 437.612, 183 440.804 M 220.500 441 C 219.271 442.989, 221.192 444.213, 224.371 443.467 C 226.092 443.063, 231.100 442.169, 235.500 441.481 L 243.500 440.231 232.309 440.115 C 225.796 440.048, 220.860 440.418, 220.500 441" stroke="none" fill="black" fill-rule="evenodd"/>
</svg>